<mxfile host="app.diagrams.net" modified="2023-10-18T10:10:25.480Z" agent="Mozilla/5.0 (Windows NT 10.0; Win64; x64) AppleWebKit/537.36 (KHTML, like Gecko) Chrome/118.0.0.0 Safari/537.36" version="22.0.4" etag="5Pvs7gKwrAkdmVLf6_dS" type="github">
  <diagram name="1 oldal" id="7Gm-jjUQWlPTQZy7TqSw">
    <mxGraphModel>
      <root>
        <mxCell id="0" />
        <mxCell id="1" parent="0" />
      </root>
    </mxGraphModel>
  </diagram>
</mxfile>
